<svg xmlns="http://www.w3.org/2000/svg" width="3000" height="3000" id="male-web-developer-doing-research-on-development"><path fill="#FFF" d="M0 0h3000v3000H0z"></path><path fill="#7DA3FB" d="M1993.16 1474.904h-341.02a2.087 2.087 0 0 1-2.029-2.567c.204-.861 5.254-21.084 26.331-21.084.001 0-.002 0 0 0 2.013 0 4.131.193 6.297.573 1.683.295 3.323.445 4.875.445 8.99 0 14.887-5.033 21.129-10.362 6.937-5.922 14.799-12.633 27.746-12.633 14.316 0 22.768 4.274 30.224 8.045 6.127 3.099 11.419 5.774 19.056 5.774 6.44 0 11.454-6.302 17.26-13.6 8.698-10.933 19.523-24.54 40.781-24.54 20.932 0 28.227 10.376 34.089 18.713 4.213 5.993 7.541 10.726 14.891 10.726 9.296 0 13.062-2.983 17.049-6.141 4.133-3.274 8.407-6.659 18.021-6.659 9.061 0 17.468 9.898 27.203 21.359 11.061 13.021 23.597 27.78 38.098 27.78a2.086 2.086 0 0 1-.001 4.171zm-338.157-4.17h323.384c-9.909-5.546-18.567-15.738-26.502-25.081-8.688-10.228-16.895-19.889-24.025-19.889-8.162 0-11.531 2.668-15.432 5.757-4.167 3.301-8.891 7.042-19.638 7.042-9.516 0-13.783-6.07-18.302-12.498-5.584-7.941-11.912-16.942-30.678-16.942-19.247 0-28.954 12.201-37.518 22.966-6.478 8.142-12.072 15.173-20.523 15.173-8.631 0-14.608-3.023-20.938-6.223-7.384-3.734-15.02-7.596-28.342-7.596-11.41 0-18.03 5.651-25.038 11.635-6.543 5.585-13.309 11.361-23.837 11.361-1.793 0-3.676-.171-5.596-.508a32.475 32.475 0 0 0-5.576-.51c-13.845.002-19.516 10.353-21.439 15.313zM401.02 1147.36s6.021-30.36 33.37-24.69c27.36 5.67 31.7-29.36 59.721-29.36 28.029 0 34.7 18.021 54.38 18.021s25.689-49.71 64.06-49.71c38.36 0 32.36 38.36 54.04 38.36 21.69 0 18.69-16.681 38.7-16.681 20.021 0 41.25 64.061 72.07 64.061H401.02v-.001zM1691.689 749.26s6.19-26.46 34.36-21.52c28.17 4.939 32.64-25.59 61.49-25.59 28.86 0 35.72 15.699 55.989 15.699 20.271 0 26.451-43.33 65.961-43.33 39.5 0 33.319 33.45 55.649 33.45 22.32 0 19.24-14.54 39.851-14.54 20.609 0 42.459 55.83 74.189 55.83h-387.489zM2245.25 1570.39s3.29-14.069 18.25-11.439c14.97 2.63 17.34-13.6 32.67-13.6s18.98 8.35 29.75 8.35 14.061-23.021 35.04-23.021c20.99 0 17.71 17.761 29.57 17.761s10.22-7.721 21.17-7.721 22.569 29.67 39.42 29.67h-205.87zM1451.97 679.54c-31.22 0-59.479 12.66-79.939 33.12-20.47 20.46-33.12 48.72-33.12 79.939 0 31.221 12.65 59.48 33.12 79.94 20.46 20.47 48.72 33.12 79.939 33.12s59.48-12.65 79.94-33.12c20.46-20.46 33.119-48.72 33.119-79.94s-12.659-59.479-33.119-79.939-48.721-33.12-79.94-33.12zm-50.111 62.95c12.82-12.83 30.541-20.761 50.11-20.761 19.57 0 37.29 7.931 50.11 20.761 12.83 12.819 20.76 30.54 20.76 50.109 0 19.57-7.93 37.29-20.76 50.11-12.82 12.83-30.54 20.76-50.11 20.76-19.569 0-37.29-7.93-50.11-20.76-12.829-12.82-20.76-30.54-20.76-50.11.001-19.569 7.931-37.289 20.76-50.109z"></path><path fill="#7DA3FB" d="M1451.97 649.57h23.24l19.64 55.52h-85.76l19.64-55.52zM1451.97 935.63h23.24l19.64-55.51h-85.76l19.64 55.51z"></path><path fill="#7DA3FB" d="m1553.1 691.47 16.44 16.43-25.37 53.14-60.64-60.64 53.14-25.37zM1350.83 893.729l16.44 16.441 53.14-25.37-60.64-60.64-25.37 53.14zM1350.83 691.47l16.44-16.44 53.14 25.37-60.64 60.64-25.37-53.14zM1553.1 893.729l16.44-16.429-25.37-53.14-60.64 60.64 53.14 25.37z"></path><path fill="#7DA3FB" d="M1308.939 792.6v-23.24l55.511-19.64v85.759l-55.511-19.639zM1594.99 792.6v-23.24l-55.51-19.64v85.759l55.51-19.639z"></path><path fill="#F72E70" d="M538.61 889.979c5.96-5.96 15.63-5.96 21.6 0 5.96 5.971 5.96 15.641 0 21.601-5.97 5.97-15.64 5.97-21.6 0-5.97-5.96-5.97-15.63 0-21.601zm-66.25-66.25c21.27-21.27 49.159-31.909 77.05-31.909 27.88 0 55.77 10.64 77.05 31.909l-13.83 13.83c-17.46-17.46-40.34-26.189-63.22-26.189s-45.771 8.729-63.23 26.189l-13.82-13.83zm45.51 45.511c8.71-8.71 20.12-13.061 31.54-13.061 11.41 0 22.83 4.351 31.54 13.061l-13.83 13.83c-4.89-4.891-11.3-7.341-17.71-7.341s-12.82 2.45-17.721 7.341l-13.819-13.83zm-22.76-22.75C510.1 831.5 529.76 824 549.41 824s39.3 7.5 54.29 22.49l-13.82 13.819c-11.18-11.17-25.83-16.76-40.47-16.76-14.65 0-29.301 5.59-40.471 16.76L495.11 846.49z"></path><path fill="#F2889E" d="M1225.8 666.38c-12.939 0-24.66 5.25-33.14 13.73-8.48 8.479-13.72 20.189-13.72 33.13 0 12.939 5.239 24.649 13.72 33.13 8.479 8.479 20.2 13.729 33.14 13.729 12.931 0 24.65-5.25 33.13-13.729 8.48-8.48 13.721-20.19 13.721-33.13 0-12.94-5.24-24.65-13.721-33.13-8.48-8.48-20.2-13.73-33.13-13.73zm-20.77 26.09a29.274 29.274 0 0 1 20.77-8.6c8.11 0 15.45 3.29 20.761 8.6a29.267 29.267 0 0 1 8.609 20.771c0 8.109-3.29 15.45-8.609 20.77-5.311 5.311-12.65 8.601-20.761 8.601-8.12 0-15.46-3.29-20.77-8.601-5.32-5.319-8.61-12.659-8.61-20.77s3.29-15.461 8.61-20.771z"></path><path fill="#F2889E" d="M1225.8 653.96h9.63l8.14 23.01h-35.55l8.14-23.01zM1225.8 772.51h9.63l8.14-23h-35.55l8.14 23z"></path><path fill="#F2889E" d="m1267.71 671.32 6.81 6.82-10.51 22.02-25.14-25.13 22.03-10.52zM1183.88 755.15l6.809 6.81 22.021-10.51-25.13-25.13-10.51 22.02zM1183.88 671.32l6.809-6.81 22.021 10.52-25.13 25.13-10.51-22.02zM1267.71 755.15l6.81-6.81-10.51-22.02-25.14 25.13 22.03 10.51z"></path><path fill="#F2889E" d="M1166.52 713.24v-9.63l23.01-8.14v35.54l-23.01-8.14zM1285.07 713.24v-9.63l-23.009-8.14v35.54l23.009-8.14z"></path><path fill="#949899" d="M511.05 1356.245a2.086 2.086 0 0 1-2.085-2.085v-2.208a2.086 2.086 0 0 1 4.17 0v2.208a2.085 2.085 0 0 1-2.085 2.085zm0-14.744a2.086 2.086 0 0 1-2.085-2.085v-8.345a2.086 2.086 0 0 1 4.17 0v8.345a2.085 2.085 0 0 1-2.085 2.085zm0-20.866a2.086 2.086 0 0 1-2.085-2.085v-8.342a2.086 2.086 0 0 1 4.17 0v8.342a2.086 2.086 0 0 1-2.085 2.085zm0-20.859a2.086 2.086 0 0 1-2.085-2.085v-8.342a2.086 2.086 0 0 1 4.17 0v8.342a2.086 2.086 0 0 1-2.085 2.085zm0-20.855a2.086 2.086 0 0 1-2.085-2.085v-8.342a2.086 2.086 0 0 1 4.17 0v8.342a2.085 2.085 0 0 1-2.085 2.085zm0-20.862a2.086 2.086 0 0 1-2.085-2.085v-3.694c0-1.601.063-3.216.188-4.799a2.085 2.085 0 1 1 4.157.325 57.885 57.885 0 0 0-.175 4.475v3.693a2.086 2.086 0 0 1-2.085 2.085zm2.463-20.59a2.085 2.085 0 0 1-1.999-2.68 62.983 62.983 0 0 1 3.015-8.061 2.085 2.085 0 0 1 3.797 1.723 58.887 58.887 0 0 0-2.815 7.526 2.088 2.088 0 0 1-1.998 1.492zm9.167-18.591a2.085 2.085 0 0 1-1.692-3.301 69.105 69.105 0 0 1 5.43-6.646 2.086 2.086 0 0 1 3.06 2.834 64.722 64.722 0 0 0-5.101 6.242 2.079 2.079 0 0 1-1.697.871zm14.555-14.786a2.084 2.084 0 0 1-1.248-3.756 70.36 70.36 0 0 1 7.175-4.698 2.086 2.086 0 0 1 2.066 3.622 66.601 66.601 0 0 0-6.75 4.418c-.372.28-.809.414-1.243.414zm18.337-9.69a2.086 2.086 0 0 1-.67-4.061 63.108 63.108 0 0 1 8.315-2.206 2.081 2.081 0 0 1 2.441 1.653 2.083 2.083 0 0 1-1.653 2.441 58.726 58.726 0 0 0-7.763 2.061 2.066 2.066 0 0 1-.67.112zm70.478-3.157h-8.337a2.086 2.086 0 0 1 0-4.17h8.337a2.086 2.086 0 0 1 0 4.17zm-20.842 0h-8.333a2.086 2.086 0 0 1 0-4.17h8.333a2.086 2.086 0 0 1 0 4.17zm-20.836 0h-8.332a2.086 2.086 0 0 1 0-4.17h8.332a2.086 2.086 0 0 1 0 4.17zM1811.21 979.995h-8.33a2.086 2.086 0 0 1 0-4.17h8.33a2.086 2.086 0 0 1 0 4.17zm-20.83 0h-8.33a2.086 2.086 0 0 1 0-4.17h8.33a2.086 2.086 0 0 1 0 4.17zm-20.83 0h-8.33a2.086 2.086 0 0 1 0-4.17h8.33a2.086 2.086 0 0 1 0 4.17zm-20.83 0h-8.33a2.086 2.086 0 0 1 0-4.17h8.33a2.086 2.086 0 0 1 0 4.17zm-20.83 0h-8.33a2.086 2.086 0 0 1 0-4.17h8.33a2.086 2.086 0 0 1 0 4.17zm-20.83 0h-8.33a2.086 2.086 0 0 1 0-4.17h8.33a2.086 2.086 0 0 1 0 4.17zm-20.831 0h-8.33a2.086 2.086 0 0 1 0-4.17h8.33a2.086 2.086 0 0 1 0 4.17zm-20.83 0h-8.33a2.086 2.086 0 0 1 0-4.17h8.33a2.086 2.086 0 0 1 0 4.17zm-20.83 0h-8.33a2.086 2.086 0 0 1 0-4.17h8.33a2.086 2.086 0 0 1 0 4.17zm-20.83 0h-8.329a2.086 2.086 0 0 1 0-4.17h8.329a2.086 2.086 0 0 1 0 4.17zm-20.829 0h-8.33a2.086 2.086 0 0 1 0-4.17h8.33a2.086 2.086 0 0 1 0 4.17zm-20.83 0h-8.33a2.086 2.086 0 0 1 0-4.17h8.33a2.086 2.086 0 0 1 0 4.17zm-20.83 0h-8.33a2.086 2.086 0 0 1 0-4.17h8.33a2.086 2.086 0 0 1 0 4.17zm-20.83 0h-8.33a2.086 2.086 0 0 1 0-4.17h8.33a2.086 2.086 0 0 1 0 4.17zm-20.83 0h-8.33a2.086 2.086 0 0 1 0-4.17h8.33a2.086 2.086 0 0 1 0 4.17zm-20.83 0h-8.33a2.086 2.086 0 0 1 0-4.17h8.33a2.086 2.086 0 0 1 0 4.17zM2414.189 1285.325a2.086 2.086 0 0 1-2.085-2.085v-1.603a2.086 2.086 0 0 1 4.17 0v1.603a2.084 2.084 0 0 1-2.085 2.085zm0-14.169a2.086 2.086 0 0 1-2.085-2.085v-8.362a2.086 2.086 0 0 1 4.17 0v8.362a2.085 2.085 0 0 1-2.085 2.085zm0-20.896a2.086 2.086 0 0 1-2.085-2.085v-8.354a2.086 2.086 0 0 1 4.17 0v8.354a2.085 2.085 0 0 1-2.085 2.085zm0-20.887a2.086 2.086 0 0 1-2.085-2.085v-8.352a2.086 2.086 0 0 1 4.17 0v8.352a2.085 2.085 0 0 1-2.085 2.085zm0-20.883a2.086 2.086 0 0 1-2.085-2.085v-8.362a2.086 2.086 0 0 1 4.17 0v8.362a2.085 2.085 0 0 1-2.085 2.085zm0-20.894a2.086 2.086 0 0 1-2.085-2.085v-8.352a2.086 2.086 0 0 1 4.17 0v8.352a2.084 2.084 0 0 1-2.085 2.085zm0-20.884a2.086 2.086 0 0 1-2.085-2.085v-8.354a2.086 2.086 0 0 1 4.17 0v8.354a2.085 2.085 0 0 1-2.085 2.085zm0-20.889a2.086 2.086 0 0 1-2.085-2.085v-8.361a2.086 2.086 0 0 1 4.17 0v8.361a2.084 2.084 0 0 1-2.085 2.085zm0-20.927a2.086 2.086 0 0 1-2.085-2.085v-.821c0-2.475-.241-4.834-.716-7.012a2.085 2.085 0 0 1 4.074-.888c.538 2.469.812 5.127.812 7.9v.821a2.084 2.084 0 0 1-2.085 2.085zm-6.142-19.406a2.08 2.08 0 0 1-1.584-.728c-1.616-1.886-3.588-3.498-5.857-4.792a2.084 2.084 0 1 1 2.065-3.623c2.688 1.532 5.029 3.45 6.959 5.7a2.086 2.086 0 0 1-1.583 3.443zm-18.218-9.082c-.098 0-.196-.007-.295-.021a47.335 47.335 0 0 0-6.595-.442h-1.42a2.086 2.086 0 0 1 0-4.17h1.42c2.498 0 4.913.163 7.179.483a2.083 2.083 0 0 1 1.772 2.356 2.084 2.084 0 0 1-2.061 1.794zm-20.819-.463h-8.338a2.086 2.086 0 0 1 0-4.17h8.338a2.086 2.086 0 0 1 0 4.17zm-20.85 0h-8.35a2.086 2.086 0 0 1 0-4.17h8.35a2.086 2.086 0 0 1 0 4.17z"></path><path fill="#E1ECF2" d="M1884.5 764.81h395.16c17.806 0 32.24 42.05 32.24 93.92v680.78c0 51.871-14.435 93.92-32.24 93.92H1884.5c-17.806 0-32.24-42.049-32.24-93.92V858.73c0-51.871 14.434-93.92 32.24-93.92z"></path><path fill="#353640" d="M2146.189 789.985h-128.22a2.086 2.086 0 0 1 0-4.17h128.22a2.086 2.086 0 0 1 0 4.17z"></path><path fill="#FFF" d="M1907.79 897.35h348.58v348.58h-348.58z"></path><path fill="#E1ECF2" d="M2235.95 1139.46v86.05h-307.74v-90.689c32.101 4.739 41.87 37.12 67.06 37.12 27.181 0 35.471-104.03 88.45-104.03 52.99 0 44.7 80.29 74.64 80.29 29.95 0 25.801-34.91 53.44-34.91 7.83-.001 15.79 10.759 24.15 26.169z"></path><circle cx="2018.5" cy="1009.62" r="32.97" fill="#E1ECF2"></circle><path fill="#FFF" d="M1884.82 830.03h56.74v7.05h-56.74zM1997.42 830.03h56.74v7.05h-56.74zM2110.01 830.03h56.74v7.05h-56.74zM2222.6 830.03h56.74v7.05h-56.74zM1907.79 1286.83h348.58v12.46h-348.58zM1907.79 1323.12h348.58v12.46h-348.58zM1907.79 1359.42h348.58v12.46h-348.58zM1907.79 1395.72h348.58v12.46h-348.58zM1907.79 1432.01h348.58v12.46h-348.58zM1907.79 1468.31h229.25v12.461h-229.25zM1907.79 1504.61h174.29v12.46h-174.29z"></path><path fill="#E1ECF2" d="M716.5 796.31h679.98c30.646 0 55.489 26.527 55.489 59.25v429.511c0 32.723-24.844 59.25-55.489 59.25H716.5c-30.646 0-55.49-26.527-55.49-59.25V855.56c0-32.723 24.844-59.25 55.49-59.25z"></path><path fill="#353640" d="M1423.37 871.305H689.61a2.086 2.086 0 0 1 0-4.17h733.76a2.086 2.086 0 0 1 0 4.17zM1264.33 852.765c-6.377 0-11.565-5.188-11.565-11.564 0-6.377 5.188-11.565 11.565-11.565 6.376 0 11.564 5.188 11.564 11.565.001 6.376-5.187 11.564-11.564 11.564zm0-18.96c-4.078 0-7.396 3.318-7.396 7.396 0 4.077 3.318 7.395 7.396 7.395 4.077 0 7.395-3.317 7.395-7.395 0-4.078-3.318-7.396-7.395-7.396zM1311.73 852.765c-6.377 0-11.565-5.188-11.565-11.564 0-6.377 5.188-11.565 11.565-11.565 6.376 0 11.564 5.188 11.564 11.565.001 6.376-5.187 11.564-11.564 11.564zm0-18.96c-4.078 0-7.396 3.318-7.396 7.396 0 4.077 3.318 7.395 7.396 7.395 4.077 0 7.395-3.317 7.395-7.395 0-4.078-3.317-7.396-7.395-7.396zM1359.13 852.765c-6.376 0-11.564-5.188-11.564-11.564 0-6.377 5.188-11.565 11.564-11.565s11.564 5.188 11.564 11.565c0 6.376-5.188 11.564-11.564 11.564zm0-18.96c-4.077 0-7.395 3.318-7.395 7.396 0 4.077 3.317 7.395 7.395 7.395s7.395-3.317 7.395-7.395c-.001-4.078-3.318-7.396-7.395-7.396z"></path><path fill="#FFF" d="M717.04 960.31h277.51v277.511H717.04z"></path><path fill="#6BD181" d="M978.3 1153.06v68.511h-245v-72.2c25.561 3.77 33.33 29.55 53.38 29.55 21.641 0 28.25-82.819 70.431-82.819 42.18 0 35.579 63.93 59.42 63.93 23.84 0 20.54-27.8 42.54-27.8 6.239-.002 12.569 8.558 19.229 20.828z"></path><circle cx="805.18" cy="1049.7" r="26.25" fill="#FFAF18"></circle><path fill="#FFAF18" d="M717.04 908.55h97.64v12.141h-97.64zM910.79 908.55h97.64v12.141h-97.64zM1104.54 908.55h97.64v12.141h-97.64zM1298.3 908.55h97.64v12.141h-97.64z"></path><path fill="#FFF" d="M1040.8 986.92h339.58v12.14H1040.8zM1040.8 1022.28h339.58v12.14H1040.8zM1040.8 1057.64h339.58v12.141H1040.8zM1040.8 1093h339.58v12.14H1040.8zM1040.8 1128.36h339.58v12.14H1040.8zM1040.8 1163.72h223.33v12.141H1040.8zM1040.8 1199.08h169.79v12.14H1040.8z"></path><path fill="#353640" d="M417.34 1817.64h589.8c26.7 0 48.551-21.85 48.551-48.56v-314.65H368.78v314.65c0 26.71 21.85 48.56 48.56 48.56z"></path><path fill="#949899" d="M418.439 1503.35h141.66v12.141h-141.66z"></path><path fill="#7DA3FB" d="M590.91 1503.35h141.66v12.141H590.91z"></path><path fill="#949899" d="M755.41 1503.35h85.57v12.141h-85.57zM418.439 1611.87h141.66v12.14h-141.66zM418.439 1756.58h141.66v12.14h-141.66z"></path><path fill="#7DA3FB" d="M590.91 1539.521h47.42v12.14h-47.42z"></path><path fill="#FFAF18" d="M590.91 1575.7h141.66v12.14H590.91zM590.91 1611.87h70.83v12.14h-70.83z"></path><path fill="#7DA3FB" d="M590.91 1648.05h141.66v12.141H590.91z"></path><path fill="#FFAF18" d="M590.91 1684.229h213.109v12.141H590.91z"></path><path fill="#949899" d="M590.91 1720.4h91.16v12.14h-91.16z"></path><path fill="#FFAF18" d="M590.91 1756.58h141.66v12.14H590.91zM661.74 1539.521h179.229v12.14H661.74z"></path><path fill="#7DA3FB" d="M755.41 1575.7h74.479v12.14H755.41z"></path><path fill="#949899" d="M687.66 1611.87h85.57v12.14h-85.57z"></path><path fill="#FFAF18" d="M755.41 1648.05h85.57v12.141h-85.57z"></path><path fill="#7DA3FB" d="M837.939 1684.229h85.57v12.141h-85.57zM702.439 1720.4h212.44v12.14h-212.44zM755.41 1756.58h85.57v12.14h-85.57z"></path><path fill="#FFAF18" d="M797.24 1611.87h208.79v12.14H797.24z"></path><path fill="#949899" d="M867.17 1756.58h119.16v12.14H867.17z"></path><path fill="#FFAF18" d="M936.48 1720.4h52.31v12.14h-52.31z"></path><path fill="#949899" d="M874.89 1648.05h97.88v12.141h-97.88zM847.18 1575.7h124.99v12.14H847.18z"></path><path fill="#7DA3FB" d="M873.61 1539.521h111.489v12.14H873.61z"></path><path fill="#FFAF18" d="M872.1 1503.35h125.931v12.141H872.1z"></path><path fill="#7DA3FB" d="M400.58 1378.2h623.31c17.49 0 31.801 14.31 31.801 31.8v31.8H368.78V1410c0-17.49 14.31-31.8 31.8-31.8z"></path><circle cx="897.53" cy="1883.98" r="97.16" fill="#F72E70"></circle><path fill="#FFF" d="m852.35 1906.3-17.949-19.54 17.949-19.54h19.011l-18.04 19.54 18.04 19.54H852.35zm64.9-72.59-23.7 100.53h-14.58l23.69-100.53h14.59zm6.45 33.51h19.01l17.95 19.54-17.95 19.54H923.7l18.04-19.54-18.04-19.54z"></path><path fill="#FFF" d="M897.53 1974.385a2.086 2.086 0 0 1 0-4.17c9.752 0 19.322-1.613 28.443-4.794a2.085 2.085 0 1 1 1.373 3.937c-9.563 3.335-19.595 5.027-29.816 5.027zm-37.051-8.119c-.293 0-.59-.063-.874-.193-31.886-14.753-52.49-46.976-52.49-82.092 0-33.416 18.316-63.981 47.801-79.769a2.084 2.084 0 0 1 2.822.854 2.083 2.083 0 0 1-.854 2.822c-28.127 15.061-45.6 44.218-45.6 76.093 0 33.497 19.654 64.234 50.071 78.307a2.087 2.087 0 0 1-.876 3.978zm111.199-32.181a2.085 2.085 0 0 1-1.747-3.22c9.057-13.954 13.845-30.167 13.845-46.886 0-47.555-38.689-86.244-86.245-86.244a2.086 2.086 0 0 1 0-4.17c49.855 0 90.415 40.56 90.415 90.414 0 17.526-5.02 34.524-14.517 49.155-.4.616-1.069.951-1.751.951z"></path><path fill="#FFAF18" d="M856.64 704.59h112.95v112.95H856.64z"></path><path fill="#2A1D19" d="M969.59 812.495H862.88a2.086 2.086 0 0 1 0-4.17h104.625V704.59a2.086 2.086 0 0 1 4.17 0v105.82a2.085 2.085 0 0 1-2.085 2.085z"></path><path fill="#FFF" d="m888.99 744.09 20.39 20.389 34.1-34.099 10.06 10.07-34.09 34.1-10.07 10.06-10.06-10.06-20.39-20.39z"></path><path fill="#D0D3D4" d="M2251.24 1320.1h241.08v153.49h-241.08z"></path><path fill="#F72E70" d="M2270.92 1339.79h201.71v114.11h-201.71z"></path><path fill="#FFF" d="m2342.17 1359.64 64.44 37.2-64.44 37.21z"></path><path fill="#2A1D19" d="M2472.63 1475.675h-221.39a2.086 2.086 0 0 1-2.085-2.085V1320.1a2.086 2.086 0 0 1 4.17 0v151.405h219.305a2.086 2.086 0 0 1 0 4.17z"></path><path fill="#F72E70" d="M1782.22 1192.45H1883.89c18.98 0 34.511-15.53 34.511-34.51 0-18.99-15.53-34.521-34.511-34.521a34.14 34.14 0 0 0-16.5 4.229c-7.37-14.8-22.67-25.029-40.25-25.029-22.68 0-41.569 17.029-44.51 38.939-.96-.109-1.94-.17-2.931-.17-14.039 0-25.529 11.49-25.529 25.53 0 14.05 11.49 25.53 25.529 25.53h2.521v.002z"></path><path fill="#353640" d="M1883.89 1194.535H1779.7c-15.228 0-27.615-12.388-27.615-27.615s12.388-27.615 27.615-27.615c.385 0 .774.008 1.167.025 3.946-22.252 23.499-38.795 46.273-38.795a2.086 2.086 0 0 1 0 4.17c-21.356 0-39.604 15.963-42.444 37.132a2.094 2.094 0 0 1-2.303 1.794 23.847 23.847 0 0 0-2.693-.157c-12.928 0-23.445 10.518-23.445 23.445s10.518 23.445 23.445 23.445h104.189a2.086 2.086 0 0 1 .001 4.171zm-16.498-64.8a2.086 2.086 0 0 1-1.007-3.913 36.432 36.432 0 0 1 17.505-4.487 2.086 2.086 0 0 1 0 4.17 32.246 32.246 0 0 0-15.495 3.972c-.32.175-.664.258-1.003.258z"></path><path fill="#7DA3FB" d="M2293.3 887.71h104.98c4.659 0 8.47 3.811 8.47 8.47v60.96c0 4.66-3.811 8.471-8.47 8.471H2293.3c-4.659 0-8.47-3.811-8.47-8.471v-60.96c0-4.659 3.811-8.47 8.47-8.47z"></path><path fill="#353640" d="M2345.79 928.745c-.319 0-.639-.073-.933-.22l-60.96-30.48a2.085 2.085 0 1 1 1.865-3.729l60.027 30.014 60.027-30.014a2.084 2.084 0 1 1 1.865 3.729l-60.96 30.48c-.292.147-.612.22-.931.22z"></path><path fill="#353640" d="M2284.832 959.225a2.085 2.085 0 0 1-1.251-3.754l48.85-36.529a2.084 2.084 0 1 1 2.498 3.339l-48.85 36.529a2.084 2.084 0 0 1-1.247.415zM2406.748 959.225c-.434 0-.872-.135-1.247-.415l-48.85-36.529a2.085 2.085 0 0 1 2.498-3.339l48.85 36.529a2.085 2.085 0 0 1-1.251 3.754z"></path><path fill="#F2889E" d="M483.45 1892.92H584.7v457.5H483.45z"></path><path fill="#FFF" d="M497.2 2328.765a2.086 2.086 0 0 1-2.085-2.085v-410.01a2.086 2.086 0 0 1 4.17 0v410.01a2.085 2.085 0 0 1-2.085 2.085z"></path><path fill="#FFAF18" d="M584.7 1963.15h64.66v387.27H584.7z"></path><path fill="#FFF" d="M599.36 2331.375a2.086 2.086 0 0 1-2.085-2.085v-345a2.086 2.086 0 0 1 4.17 0v345a2.085 2.085 0 0 1-2.085 2.085z"></path><path fill="#5630AD" d="M649.36 1935.65h90v414.779h-90z"></path><path fill="#FFF" d="M669.76 2329.875a2.086 2.086 0 0 1-2.085-2.085v-369.5a2.086 2.086 0 0 1 4.17 0v369.5a2.086 2.086 0 0 1-2.085 2.085z"></path><path fill="#2A1D19" d="M584.7 2352.515H483.45a2.086 2.086 0 0 1 0-4.17h99.165V1911.9a2.086 2.086 0 0 1 4.17 0v438.529a2.085 2.085 0 0 1-2.085 2.086zM700.61 2352.515h-51.25a2.086 2.086 0 0 1-2.085-2.085v-387.28a2.086 2.086 0 0 1 4.17 0v385.194h49.165a2.086 2.086 0 0 1 0 4.171z"></path><path fill="#7DA3FB" d="M1144.98 1645.88s-35.141 41.66-66.391 151.82c-31.25 110.17-50 248.13-66.66 319.89-7.3 31.43-19.399 76.63-20.97 117.5 21.74 149.06 179.92 77.59 198.58-102.851 0 0 28.13-140.989 46.88-261.27 18.751-120.269-19.789-285.019-91.439-225.089zM1836.59 1641.34s58.689 53.061 89.94 127.021c31.25 73.96 53.13 240.619 75 364.58 10.68 60.529 12.17 112.609-.87 150.069-40.301 91.94-235.6 40.22-200.87-138.18 0 0-5.55-180.12-20.13-334.29-14.59-154.17 12.44-207 56.93-169.2z"></path><path fill="#7DA3FB" d="M1410.25 1545.38s-225.689 54.01-265.27 100.891c-39.591 46.869 15.619 314.569 65.619 702.069h562.51s90.621-655.21 67.711-701.04c-22.92-45.83-291.851-112.49-291.851-112.49l-138.719 10.57z"></path><path fill="#353640" d="M1530.92 1836.355h-.031l-70.311-1.051a2.085 2.085 0 0 1 .03-4.17h.032l68.04 1.017-11.821-168.055a2.086 2.086 0 0 1 1.934-2.227c1.151-.066 2.146.786 2.227 1.934l11.98 170.32a2.084 2.084 0 0 1-2.08 2.232z"></path><circle cx="1489.25" cy="1704.84" r="18.49" fill="#FFF"></circle><circle cx="1489.25" cy="1784.52" r="18.49" fill="#FFF"></circle><path fill="#2A1D19" d="M1180.118 2128.515a2.085 2.085 0 0 1-2.062-1.793l-32.65-231.229a2.085 2.085 0 0 1 4.129-.584l32.65 231.229a2.085 2.085 0 0 1-2.067 2.377zM1801.223 2135.535a2.083 2.083 0 0 1-2.074-2.322l31.271-274.16a2.078 2.078 0 0 1 2.308-1.835 2.084 2.084 0 0 1 1.835 2.308l-31.271 274.16a2.086 2.086 0 0 1-2.069 1.849z"></path><path fill="#FCCAC3" d="M1414.95 1433.74h128.479l6.74 122.92c0 129.69-140.4 98.44-140.4 0l5.181-122.92z"></path><path fill="#2A1D19" d="M1414.95 1433.74h128.479l4.83 88.02c-45.74 14.03-105.189 5.54-136.04-23.22l2.731-64.8z"></path><path fill="#FFF" d="M1488.689 1642.58s-41.899-16.08-78.439-97.2l-49.12 6.34 19.79 159.11s58.84-14.07 107.811-56.25l89.06 51.05s33.39-78.49 21.64-157.479l-50.459-13.341c-.001 0-5.552 81.23-60.283 107.77z"></path><path fill="#2A1D19" d="M1380.919 1712.915a2.085 2.085 0 0 1-2.068-1.827l-12.96-104.2a2.084 2.084 0 0 1 1.812-2.327 2.08 2.08 0 0 1 2.326 1.812l12.71 102.19c7.71-.982 38.934-7.072 89.741-43.763a2.084 2.084 0 1 1 2.441 3.381c-59.971 43.308-92.584 44.695-93.943 44.733l-.059.001zM1577.789 1707.716a2.085 2.085 0 0 1-1.924-2.887c16.063-38.605 22.095-88.898 22.154-89.402a2.086 2.086 0 0 1 2.313-1.828 2.086 2.086 0 0 1 1.828 2.314c-.061.509-6.162 51.381-22.446 90.518a2.084 2.084 0 0 1-1.925 1.285zM1447.18 1609.165a2.08 2.08 0 0 1-1.542-.681c-14.45-15.864-32.984-53.071-33.766-54.647a2.086 2.086 0 0 1 3.735-1.854c.189.381 19.057 38.262 33.113 53.692a2.085 2.085 0 0 1-1.54 3.49z"></path><path fill="#7DA3FB" d="m991.01 2233.96-.05 1.08v.04c-2.03 52.46 13.271 97.79 78.26 97.79 115.63 0 194.79 30.32 258.33 6.07 63.55-24.26 135.42-243.59-23.95-223.37l-114.06 16.67s-68.79 9.601-133.37 28.87c-59.12 17.64-64.65 64.97-65.16 72.85z"></path><path fill="#647EDD" d="M992.28 2266.86c5.29 37.729 25.609 66.01 76.939 66.01 115.63 0 194.79 30.32 258.33 6.07 47.53-18.15 99.7-145.4 56.32-199.95-21.57-12.28-52.98-21.32-92.98-9.04-80.97 24.85-33.6 151.18-33.6 151.18-19.45 46.721-129.17 12.5-189.59 16.67-59.699 4.12-75.059-30.13-75.419-30.94z"></path><path fill="#2A1D19" d="M1072.609 2158.506a2.086 2.086 0 0 1-.579-4.089c1.187-.344 119.814-34.421 218.193-38.99 41.646-1.934 71.824 3.685 89.682 16.699 13.781 10.045 14.73 20.836 14.763 21.29a2.085 2.085 0 0 1-4.158.308c-.007-.082-.975-9.609-13.471-18.523-11.787-8.408-36.383-17.937-86.623-15.608-97.879 4.546-216.044 38.487-217.227 38.83a2.074 2.074 0 0 1-.58.083z"></path><path fill="#FCCAC3" d="M1222.25 2243.46s53.96-92.79 90.84-107c36.87-14.21 73.5 69.87 73.5 69.87s40.939-42.97 59.551-38.54c18.609 4.42 20.379 21.89 10.779 31-9.6 9.1-58.91 96.18-99.47 84.23 0 0-17.76 39.609-64.53 34.789-46.77-4.819-77.94-64.639-70.67-74.349z"></path><path fill="#FCCAC3" d="M1291.4 2151.25s39.92 35.649 51.119 44.47c11.211 8.811 36.08 6.811 26.95-16.79-9.12-23.61-43.88-58.02-58.2-59.409-14.319-1.391-33.899 19.269-19.869 31.729zM1216.7 2264.75s44.95 49.7 62.22 35.33-17.02-47.68-36.01-68.49c-19-20.8-44.21 9.11-26.21 33.16z"></path><path fill="#FCCAC3" d="M1235.55 2191.53s-14.25 17.6 6.58 39.25c20.83 21.64 53.09 43.79 64.89 31.609 11.801-12.18-1.359-34.08-29.619-59.43-28.271-25.339-36.761-17.839-41.851-11.429z"></path><path fill="#FCCAC3" d="M1255.16 2151.86s12.09-17.04 32.46-1.83c20.38 15.199 63.5 60.75 45.17 77.31-18.34 16.561-68.43-36.819-77.64-49.649-9.22-12.821.01-25.831.01-25.831z"></path><path fill="#2A1D19" d="M1357.452 2285.095c-.714 0-1.41-.367-1.798-1.026-21.284-36.126 1.939-70.162 2.177-70.502a2.084 2.084 0 0 1 3.421 2.384c-.222.318-21.904 32.226-2.004 66a2.086 2.086 0 0 1-1.796 3.144zM1357.198 2202.651c-5.811 0-11.855-2.062-15.967-5.292-11.124-8.761-49.588-43.097-51.22-44.555a2.084 2.084 0 1 1 2.777-3.109c.399.355 40 35.707 51.021 44.387 6.233 4.898 16.685 5.827 21.927 1.95 5.214-3.857 3.85-11.021 1.789-16.351-9.114-23.593-43.344-56.813-56.457-58.086a2.085 2.085 0 0 1-1.874-2.276 2.092 2.092 0 0 1 2.276-1.874c15.587 1.513 50.881 37.271 59.944 60.733 4.931 12.745.113 18.757-3.198 21.205-3.078 2.278-6.991 3.268-11.018 3.268zM1271.222 2304.784c-7.869 0-18.304-5.128-31.184-15.347-13.376-10.613-24.771-23.163-24.884-23.289a2.084 2.084 0 1 1 3.093-2.797c12.131 13.409 46.44 45.858 59.34 35.126 2.453-2.041 3.742-4.54 3.94-7.639.875-13.677-19.397-35.479-34.199-51.398-2.09-2.249-4.097-4.407-5.957-6.445a2.084 2.084 0 1 1 3.08-2.81 967.357 967.357 0 0 0 5.931 6.416c16.171 17.392 36.296 39.037 35.307 54.504-.271 4.244-2.1 7.804-5.435 10.578-2.486 2.068-5.502 3.101-9.032 3.101z"></path><path fill="#2A1D19" d="M1297.901 2267.942h-.034c-15.815-.024-40.145-17.956-57.24-35.716a2.085 2.085 0 0 1 3.004-2.892c15.951 16.57 39.729 34.416 54.242 34.438h.028c3.28 0 5.773-.927 7.62-2.834 2.646-2.73 3.865-5.977 3.727-9.925-.395-11.269-11.89-27.349-33.241-46.502a2.085 2.085 0 1 1 2.784-3.103c22.533 20.212 34.182 36.853 34.624 49.46.178 5.069-1.471 9.434-4.899 12.973-2.636 2.722-6.208 4.101-10.615 4.101z"></path><path fill="#2A1D19" d="M1324.023 2232.581c-.743 0-1.507-.042-2.293-.126-23.886-2.563-60.956-43.355-68.273-53.549a2.084 2.084 0 1 1 3.388-2.431c8.12 11.311 44.36 49.584 65.331 51.834 3.869.415 6.883-.407 9.218-2.517 2.705-2.443 3.924-5.669 3.727-9.862-.904-19.233-31.738-51.544-48.746-64.229a2.084 2.084 0 1 1 2.493-3.342c16.542 12.336 49.406 45.837 50.418 67.374.256 5.441-1.459 9.867-5.097 13.153-2.721 2.457-6.133 3.695-10.166 3.695z"></path><path fill="none" d="M2000.76 2282.729c-13.619 39.41-43.24 62.711-95.06 62.711h-170.83c-46.36 0-79.17-77.601-60.42-160.94 18.75-83.33 125.34-39.67 125.34-39.67s58.989-1.95 114.2 6.38c55.16 8.33 106.67 66.42 86.77 131.519z"></path><path fill="#647EDD" d="M2000.76 2282.729c-13.619 39.41-43.24 62.711-95.06 62.711h-170.83c-46.36 0-79.17-77.601-60.42-160.94 18.75-83.33 125.34-39.67 125.34-39.67 5.67 6.44 40.83 37.34 52.29 105.05s117.68 81.24 152.07 17.7c-.711 5-1.839 10.05-3.39 15.149z"></path><path fill="#2A1D19" d="M1931.46 2157.615c-.209 0-.421-.031-.63-.098-.379-.12-39.017-11.993-131.009-10.603h-.032a2.085 2.085 0 0 1-.03-4.17c92.793-1.402 130.764 10.299 132.332 10.798a2.086 2.086 0 0 1-.631 4.073z"></path><path fill="#FCCAC3" d="M1824.59 2260.56s-26.21-104.09-57.72-127.939c-31.521-23.85-89.95 46.83-89.95 46.83s-27.48-52.6-46.59-53.5c-19.109-.89-25.63 15.41-18.92 26.82 6.71 11.399 30.029 108.72 72.32 108.439 0 0 6.119 42.971 52.399 51.271 46.281 8.29 92.762-40.581 88.461-51.921z"></path><path fill="#FCCAC3" d="M1783.62 2152.83s-48.22 23.22-61.42 28.601c-13.21 5.379-36.561-3.42-21.261-23.58 15.301-20.17 58.211-43.631 72.351-41.011 14.149 2.62 27.25 27.889 10.33 35.99zM1824.04 2282.55s-56.94 35.34-69.56 16.76c-12.631-18.58 29.529-41.119 53.539-55.869 24.011-14.741 39.971 20.969 16.021 39.109z"></path><path fill="#FCCAC3" d="M1826.16 2206.97s8.83 20.86-17.17 35.9c-26 15.05-63.12 27.42-71.1 12.449-7.971-14.97 10.719-32.379 44.89-48.92 34.18-16.549 40.26-6.989 43.38.571z"></path><path fill="#FCCAC3" d="M1818.28 2163.43s-6.91-19.72-30.69-10.729c-23.79 8.979-77.82 40.84-64.77 61.82 13.04 20.979 75.93-16.48 88.33-26.261 12.4-9.781 7.13-24.83 7.13-24.83z"></path><path fill="#2A1D19" d="M1683.73 2263.295a2.085 2.085 0 0 1-1.435-3.598c28.518-27.025 16.437-63.625 16.312-63.991a2.085 2.085 0 1 1 3.945-1.349c.134.392 13.051 39.521-17.388 68.368-.402.38-.918.57-1.434.57zM1713.652 2185.069c-6.559 0-13.381-2.28-17.16-7.209-2.507-3.27-5.479-10.38 2.786-21.271 15.202-20.04 59.016-44.649 74.392-41.8a2.085 2.085 0 0 1-.76 4.1c-12.938-2.385-55.022 20.067-70.31 40.221-3.456 4.555-6.747 11.063-2.8 16.213 3.97 5.176 14.269 7.166 21.613 4.177 12.989-5.295 60.82-28.316 61.302-28.549a2.086 2.086 0 0 1 1.808 3.758c-1.971.949-48.428 23.309-61.537 28.652-2.756 1.123-6.01 1.708-9.334 1.708zM1767.193 2306.797c-6.751 0-11.577-2.104-14.438-6.315-2.438-3.588-3.213-7.514-2.302-11.668 3.324-15.144 28.663-30.389 49.023-42.638a930.128 930.128 0 0 0 7.45-4.512 2.084 2.084 0 1 1 2.183 3.553 968.88 968.88 0 0 1-7.483 4.532c-18.638 11.213-44.161 26.568-47.101 39.958-.666 3.033-.117 5.791 1.678 8.431 9.426 13.873 51.369-7.826 66.735-17.359a2.085 2.085 0 1 1 2.199 3.543c-.144.089-14.564 9.001-30.354 15.504-11.28 4.647-20.497 6.971-27.59 6.971z"></path><path fill="#2A1D19" d="M1753.219 2264.188c-2.959 0-5.67-.315-8.059-.998-4.256-1.216-7.321-3.533-9.109-6.889-2.317-4.353-2.694-9.006-1.12-13.831 3.914-11.997 19.707-24.764 46.941-37.946a2.086 2.086 0 0 1 1.816 3.754c-25.805 12.49-41.294 24.762-44.793 35.485-1.227 3.759-.953 7.219.836 10.578 1.253 2.351 3.403 3.934 6.573 4.839 13.963 3.986 41.74-6.595 61.641-18.114a2.087 2.087 0 0 1 2.09 3.61c-17.98 10.406-40.937 19.512-56.816 19.512z"></path><path fill="#2A1D19" d="M1737.002 2222.893c-1.75 0-3.415-.129-4.979-.403-4.992-.875-8.685-3.186-10.973-6.868-2.59-4.163-3.017-8.891-1.269-14.05 6.917-20.415 47.763-43.533 67.072-50.821a2.085 2.085 0 0 1 1.473 3.901c-19.854 7.494-58.419 30.029-64.596 48.259-1.347 3.977-1.065 7.414.86 10.51 1.659 2.669 4.325 4.293 8.151 4.963 1.307.229 2.712.337 4.198.337 22.138.002 62.669-24.012 72.919-32.096a2.085 2.085 0 0 1 2.582 3.274c-9.204 7.258-50.732 32.993-75.438 32.994zM1341.26 1405.96s-53.949-59.39-60.5-175.75c-6.56-116.37 124.551-127.68 189.92-134.34 65.37-6.67 109.94 49.74 115.65 84.08 5.71 34.33 42.52 176.939-21.67 207.31-64.19 30.38-223.4 18.7-223.4 18.7z"></path><path fill="#FCCAC3" d="M1550.28 1337.1s25.84-89.51 61.47-68.699c35.641 20.81 42.57 154.6-47.05 130.939l-14.42-62.24z"></path><path fill="#2A1D19" d="M1600.868 1355.785a2.085 2.085 0 0 1-2.081-2 180.95 180.95 0 0 1-.14-10.274c.503-31.244 9.738-41.104 10.171-41.547a2.085 2.085 0 0 1 2.996 2.9c-.147.16-7.407 8.288-8.79 33.005 5.405-4.371 11.402-3.717 11.716-3.679a2.085 2.085 0 0 1-.491 4.141c-.314-.035-6.997-.661-11.439 5.915-.036 2.923.006 6.044.143 9.369a2.083 2.083 0 0 1-1.997 2.168c-.029.002-.059.002-.088.002z"></path><path fill="#FCCAC3" d="M1385.08 1493.78c-46.271-43.12-62.96-123.101-77.561-278.58-17.359-95.641 231.791-123.17 246.041-44.66 40.959 150.7 48.89 235.439 21.879 289.75-29.309 58.939-144.089 76.61-190.359 33.49z"></path><path fill="#FCCAC3" d="M1358.62 1371.89s-62.561-73.47-93.83-40.51c-31.28 32.95 12.09 160.12 101.681 103.94l-7.851-63.43z"></path><path fill="#2A1D19" d="M1333.752 1407.425c-.717 0-1.415-.37-1.802-1.034a82.42 82.42 0 0 0-5.446-8.175c-17.501-3.591-37.076 2.277-37.274 2.337a2.086 2.086 0 0 1-1.219-3.988c.777-.238 17.472-5.254 34.498-3.214-19.604-22.003-44.188-24.389-44.477-24.414a2.084 2.084 0 0 1-1.899-2.255 2.093 2.093 0 0 1 2.255-1.899c1.465.125 36.119 3.496 57.162 39.505a2.084 2.084 0 0 1-1.798 3.137zM1317.46 1226.14s28.229 153.061 12.3 155.37c-15.939 2.311-113.21-163.13-60.55-211.18 0 0-48.31-64.64 75.62-89.729 123.92-25.091 139.4-58.7 159.26-52.421 19.87 6.28 13.971 44.28 13.971 44.28s35.539-16.58 58.379-14.15c22.83 2.421 36.061 119.261-43.26 135.44 0 0-79.21 27.9-215.72 32.39z"></path><path fill="#2A1D19" d="M1552.8 1167.24s23.091 142.83 29.22 145.88c6.141 3.05 9.24-21.04.351-92.65-8.891-71.61-36.781-82.27-29.571-53.23zM1479.497 1383.542c-7.474 0-15.717-2.985-16.98-3.46a2.085 2.085 0 0 1 1.467-3.904c4.353 1.632 16.75 5.14 21.785 1.81 1.373-.908 2.053-2.265 2.14-4.268.477-11.061-21.866-48.7-30.515-62.269a2.085 2.085 0 0 1 3.517-2.241c1.298 2.037 31.795 50.062 31.165 64.69-.143 3.313-1.529 5.93-4.008 7.568-2.312 1.526-5.371 2.074-8.571 2.074z"></path><path fill="#FFF" d="M1433.65 1394.06s36.13 10.711 66.279.49c30.15-10.21 32.66 43.801-12.279 53.49-44.94 9.7-86.37-61.66-54-53.98z"></path><path fill="#2A1D19" d="m1403.352 1295.183.01-.002c5.348-.97 10.469 2.578 11.439 7.925l2.011 11.079c.971 5.347-2.577 10.469-7.925 11.439l-.01.001c-5.348.971-10.469-2.577-11.439-7.924l-2.01-11.079c-.971-5.348 2.577-10.469 7.924-11.439zM1505.582 1276.633l.01-.002c5.347-.971 10.469 2.577 11.438 7.925l2.011 11.079c.971 5.347-2.577 10.469-7.924 11.438l-.01.002a9.838 9.838 0 0 1-11.439-7.925l-2.011-11.078c-.97-5.347 2.577-10.468 7.925-11.439zM1368.55 1282.76s45.511-5.13 56.271-10.21c10.75-5.08 4.84-17.069-10.79-13.92-15.621 3.15-65.411 21.08-45.481 24.13zM1538.561 1251.91s-44.41 11.189-56.271 10.21c-11.851-.98-10.53-14.28 5.21-16.82 15.73-2.54 68.641-3.25 51.061 6.61z"></path><path fill="#353640" d="M2024.29 1692.35h24.581l-90.442 473.75h-24.581zM2536.05 1692.35h-487.165l-90.443 473.75h487.165z"></path><path fill="#FFF" d="M1958.432 2168.186a2.084 2.084 0 0 1-2.05-2.475l81.101-424.811a2.084 2.084 0 1 1 4.095.781l-81.101 424.811a2.085 2.085 0 0 1-2.045 1.694z"></path><path fill="#353640" d="M2425.77 2315.5h-355.4c-9.601 0-17.46 7.86-17.46 17.46v17.46h390.32v-17.46c0-9.6-7.86-17.46-17.46-17.46z"></path><path fill="#949899" d="M2205.57 1977.35h85v338.15h-85z"></path><path fill="#353640" d="M2224.48 2291.936a2.086 2.086 0 0 1-2.085-2.085V1977.35a2.086 2.086 0 0 1 4.17 0v312.501a2.085 2.085 0 0 1-2.085 2.085z"></path><path fill="#276169" d="M2466.23 2220.205h-.025a2.084 2.084 0 0 1-1.942-1.396c-.13-.371-13.102-37.602-22.038-80.282-12.076-57.679-11.412-97.364 1.975-117.955 6.283-9.663 15.392-15.043 27.071-15.99 11.658-.94 20.586 2.952 26.517 11.535 30.062 43.503-27.156 196.259-29.606 202.74a2.088 2.088 0 0 1-1.952 1.348zm8.386-211.592c-.972 0-1.983.042-3.008.125-10.471.849-18.292 5.463-23.912 14.106-27.173 41.792 9.642 161.55 18.618 188.963 10.152-28.32 53.751-156.116 28.042-193.32-4.591-6.644-11.048-9.874-19.74-9.874z"></path><path fill="#59BD9F" d="M2468.189 2242.979s-8.209-131.109 39.181-187.359c47.399-56.25 103.13-42.181 119.79-19.79 16.67 22.399-19.79 39.58-77.601 48.439-57.809 8.851-81.37 158.71-81.37 158.71zM2452.439 2207.21s-100.229-127.65-79.119-207.1c21.1-79.46 101.61-34.32 79.119 207.1z"></path><path fill="#FFF" d="M2457.048 2207.729c-.001 0-.001 0 0 0-15.731-.001-27.692-14.126-41.543-30.48-15.087-17.815-32.187-38.007-59.427-48.852-34.15-13.601-57.517-36.301-54.352-52.805 1.628-8.485 10.585-18.601 44.014-18.601 5.076 0 10.624.242 16.489.72 37.448 3.048 67.768 29.329 87.681 76.004 14.921 34.972 18.864 69.52 18.902 69.865a2.087 2.087 0 0 1-1.353 2.186c-3.541 1.303-7.044 1.963-10.411 1.963zm-111.308-146.566c-23.859 0-38.036 5.403-39.918 15.215-2.749 14.335 20.003 35.483 51.799 48.145 28.206 11.23 46.426 32.744 61.066 50.031 13.723 16.205 24.563 29.005 38.359 29.006h.001c2.424 0 4.861-.387 7.41-1.177-.976-7.235-5.566-37.024-18.419-67.115-19.543-45.751-47.854-70.445-84.147-73.399-5.752-.469-11.187-.706-16.151-.706z"></path><path fill="#276169" d="M2474.56 2205.105a2.083 2.083 0 0 1-2.057-2.413c4.908-30.83 17.527-57.055 36.492-75.84 16.788-16.629 37.813-26.166 57.685-26.166 9.877 0 19.002 2.274 27.119 6.759 16.522 9.129 24.31 24.399 20.324 39.852-3.676 14.251-18.335 28.629-42.799 28.629h-.003c-3.793 0-7.734-.357-11.715-1.063a82.947 82.947 0 0 0-14.424-1.272c-40.653 0-68.797 30.522-69.076 30.831a2.092 2.092 0 0 1-1.546.683zm92.119-100.249c-18.781 0-38.736 9.098-54.75 24.958-17.018 16.856-28.76 39.979-34.17 67.166 9.885-8.939 34.436-27.561 67.423-27.561 5.042 0 10.14.449 15.151 1.337 3.741.663 7.438.999 10.987.999 22.234.001 35.49-12.807 38.764-25.5 3.488-13.522-3.525-26.995-18.303-35.16-7.493-4.139-15.938-6.239-25.102-6.239z"></path><path fill="#67CFB0" d="M2479.02 2198.69s5.69-51.66 44.5-62.08c38.801-10.41 36.45 16.399 4.94 27.35-31.51 10.939-41.92 44.27-41.92 44.27l-7.52-9.54z"></path><path fill="#F2889E" d="M2382.609 2174.899h168.261c5.601 0 10.14 5.57 10.14 12.44v32.931c0 6.87-4.539 12.439-10.14 12.439h-168.261c-5.6 0-10.14-5.569-10.14-12.439v-32.931c.001-6.869 4.541-12.44 10.14-12.44zM2392.78 2232.72l16.67 117.71h114.58l16.67-117.71z"></path><path fill="#2A1D19" d="m2540.7 2232.72-145.011 20.53-2.909-20.53zM2543.82 2225.945h-136.46a2.086 2.086 0 0 1 0-4.17h136.46a2.086 2.086 0 0 1 0 4.17zM2404.957 2320.855a2.087 2.087 0 0 1-2.062-1.793l-8.26-58.381a2.084 2.084 0 0 1 1.772-2.356 2.095 2.095 0 0 1 2.356 1.772l8.26 58.381a2.084 2.084 0 0 1-2.066 2.377z"></path><path fill="#FFF" d="M1128.64 2316.16h508.74c23.69 0 40.75-19.511 43.08-43.091l29.649-300.18c2.32-23.58-19.39-43.08-43.09-43.08H1099c-23.7 0-45.41 19.5-43.09 43.08l29.65 300.18c2.32 23.58 19.39 43.091 43.08 43.091z"></path><path fill="#353640" d="M1663.33 2350.43h-560.641c-9.43 0-17.13-7.71-17.13-17.14v-17.13h594.9v17.13c.001 9.43-7.699 17.14-17.129 17.14z"></path><ellipse cx="1383.01" cy="2122.98" fill="#EFF3F7" rx="45.01" ry="39.87"></ellipse><path fill="#353640" d="M2645 2352.505H355a2.086 2.086 0 0 1 0-4.17h2290a2.086 2.086 0 0 1 0 4.17z"></path></svg>